<svg t="1577092624103" class="icon" viewBox="0 0 1090 1024" version="1.1" xmlns="http://www.w3.org/2000/svg" p-id="1652" width="200" height="200"><path d="M965.071912 368.820508h-0.244869c-23.151219 0-41.828019 19.010712-41.828019 42.584886v399.024613c0 23.574174 18.676801 42.584886 41.828019 42.584886h0.244869c23.151219 0 41.828019-19.010712 41.828019-42.584886V411.383134c0-23.596435-18.676801-42.584886-41.828019-42.584887z m-866.61245 43.853751L385.95753 146.746894 656.915833 301.637452c8.214231 6.834062 18.409671 10.262223 28.493808 10.128658a43.185927 43.185927 0 0 0 28.627372-10.128658l202.862555-141.467303-17.407936 107.74221c-4.006942 23.329305 9.32727 45.389745 29.495543 49.307644 20.279577 3.806595 39.824548-11.909521 43.80923-35.238826l31.721622-197.475444c3.494944-20.413142-6.344324-39.935852-22.394352-47.037044a44.165402 44.165402 0 0 0-13.067082-4.296332L775.521308 0.71613c-22.90635-4.051463-44.566096 9.505356-48.305909 30.163366-3.717551 20.680271 11.709174 40.692719 34.615525 44.744183l106.540128 17.764108-185.833053 129.401957-275.544025-157.428288a43.453057 43.453057 0 0 0-33.725093-9.750225 39.802288 39.802288 0 0 0-16.562025 5.698762 42.072888 42.072888 0 0 0-9.839268 7.991622c0 0.111304-0.111304 0.111304-0.111304 0.244869L39.958113 353.215696a42.473582 42.473582 0 0 0 0 59.436302 41.00437 41.00437 0 0 0 58.501349 0z m587.083744 41.316021c-23.151219 0-41.85028 19.010712-41.850281 42.584887v313.85484c0 23.574174 18.699061 42.584886 41.850281 42.584886h0.222607c23.151219 0 41.85028-19.010712 41.850281-42.584886V496.575167c0-23.574174-18.699061-42.584886-41.850281-42.584887h-0.222607z m-280.307834-56.920833c-23.151219 0-41.805759 19.032973-41.805759 42.607147v370.753413c0 23.574174 18.676801 42.584886 41.805759 42.584886h0.267129c23.151219 0 41.805759-19.010712 41.805759-42.584886V439.654333c0-23.596435-18.65454-42.607147-41.805759-42.607146h-0.267129zM125.706666 568.099076c-23.151219 0-41.828019 19.010712-41.828019 42.584886v199.768305c0 23.574174 18.676801 42.584886 41.828019 42.584887h0.244869c23.151219 0 41.828019-19.010712 41.828019-42.584887v-199.768305c0-23.596435-18.676801-42.584886-41.828019-42.584886h-0.244869z m923.243892 370.486283H41.85028c-23.151219 0-41.828019 19.010712-41.828019 42.584886v0.26713C0 1004.989288 18.676801 1024 41.828019 1024H1048.928297c23.151219 0 41.828019-19.010712 41.82802-42.584886v-0.26713c0-23.574174-18.676801-42.584886-41.82802-42.584886z" p-id="1653"></path></svg>